<?xml version="1.0" encoding="iso-8859-1"?>
<!-- Generator: Adobe Illustrator 19.0.0, SVG Export Plug-In . SVG Version: 6.00 Build 0)  -->
<svg version="1.1" id="Capa_1" xmlns="http://www.w3.org/2000/svg" xmlns:xlink="http://www.w3.org/1999/xlink" x="0px" y="0px"
	 viewBox="0 0 512 512" style="enable-background:new 0 0 512 512;" xml:space="preserve">
<g>
	<g>
		<path d="M504.485,116.227H375.734V99.695c0-4.15-3.365-7.515-7.515-7.515h-33.356l-11.982-41.939
			c-2.384-8.343-10.109-14.171-18.787-14.171h-96.188c-8.678,0-16.403,5.827-18.787,14.171L177.137,92.18h-33.356
			c-4.15,0-7.515,3.365-7.515,7.515v16.532H7.515c-4.15,0-7.515,3.365-7.515,7.515v344.673c0,4.15,3.365,7.515,7.515,7.515h349.683
			c4.15,0,7.515-3.365,7.515-7.515c0-4.15-3.365-7.515-7.515-7.515H15.029V275.538h57.112v41.08h-8.517
			c-4.15,0-7.515,3.365-7.515,7.515c0,4.15,3.365,7.515,7.515,7.515h8.517v24.548c0,1.993,0.792,3.905,2.201,5.313l24.047,24.047
			c2.895,2.895,7.732,2.895,10.627,0l24.047-24.047c1.41-1.409,2.201-3.32,2.201-5.313v-24.548h8.517
			c4.15,0,7.515-3.365,7.515-7.515c0-4.15-3.365-7.515-7.515-7.515h-8.517v-41.08h33.39c3.824,44.838,41.535,80.157,87.346,80.157
			s83.521-35.319,87.346-80.157h33.39v41.08h-8.517c-4.15,0-7.515,3.365-7.515,7.515c0,4.15,3.365,7.515,7.515,7.515h8.517v24.548
			c0,1.993,0.792,3.905,2.201,5.313l24.047,24.047c2.895,2.895,7.732,2.895,10.627,0l24.047-24.047
			c1.41-1.409,2.201-3.32,2.201-5.313v-24.548h8.517c4.15,0,7.515-3.365,7.515-7.515c0-4.15-3.365-7.515-7.515-7.515h-8.517v-41.08
			h57.112V460.9H391.765c-4.15,0-7.515,3.365-7.515,7.515c0,4.15,3.365,7.515,7.515,7.515h112.72c4.15,0,7.515-3.365,7.515-7.515
			V123.742C512,119.592,508.635,116.227,504.485,116.227z M151.295,107.209h31.51c3.356,0,6.304-2.224,7.225-5.45l13.54-47.39
			c0.55-1.926,2.333-3.27,4.335-3.27h96.188c2.003,0,3.785,1.345,4.335,3.27l13.54,47.39c0.922,3.226,3.871,5.45,7.225,5.45h31.51
			v9.018h-40.579c-2.003,0-3.785-1.345-4.335-3.27l-13.539-47.39c-0.922-3.226-3.871-5.45-7.225-5.45h-78.048
			c-3.356,0-6.304,2.224-7.225,5.45l-13.54,47.39c-0.55,1.925-2.333,3.269-4.335,3.269h-40.58V107.209z M301.094,116.227h-90.187
			l11.737-41.08h66.712L301.094,116.227z M120.235,353.084l-16.532,16.532L87.17,353.084v-21.436h33.065V353.084z M120.235,316.618
			H87.17v-48.585c0-0.003,0-0.006,0-0.01c0-0.004,0-0.006,0-0.01v-16.522h33.065V316.618z M256,340.665
			c-40.055,0-72.642-32.587-72.642-72.642c0-40.055,32.587-72.642,72.642-72.642s72.642,32.587,72.642,72.642
			C328.642,308.079,296.055,340.665,256,340.665z M424.83,353.084l-16.532,16.532l-16.532-16.532v-21.436h33.065V353.084z
			 M424.83,316.618h-33.065v-65.127h33.065V316.618z M496.971,260.509h-57.112v-16.532c0-4.15-3.365-7.515-7.515-7.515H384.25
			c-4.15,0-7.515,3.365-7.515,7.515v16.532h-33.39c-3.824-44.838-41.535-80.157-87.346-80.157c-45.81,0-83.521,35.319-87.346,80.157
			h-33.39v-16.532c0-4.15-3.365-7.515-7.515-7.515H79.656c-4.15,0-7.515,3.365-7.515,7.515v16.532H15.029V131.256h481.941V260.509z"
			/>
	</g>
</g>
<g>
	<g>
		<path d="M276.841,259.908c4.15,0,7.515-3.365,7.515-7.515v-5.21c0-11.984-9.157-21.87-20.841-23.03v-8.231
			c0-4.15-3.365-7.515-7.515-7.515s-7.515,3.365-7.515,7.515v8.591c-11.858,2.299-20.841,12.755-20.841,25.275
			c0,14.199,11.552,25.75,25.75,25.75h5.21c5.912,0,10.721,4.809,10.721,10.721s-4.809,10.721-10.721,10.721h-7.815
			c-4.475,0-8.116-3.641-8.116-8.116c0-4.15-3.365-7.515-7.515-7.515s-7.515,3.365-7.515,7.515c0,11.984,9.156,21.87,20.841,23.03
			v8.231c0,4.15,3.365,7.515,7.515,7.515s7.515-3.365,7.515-7.515v-8.591c11.858-2.299,20.841-12.755,20.841-25.275
			c0-14.199-11.552-25.75-25.75-25.75h-5.21c-5.912,0-10.721-4.809-10.721-10.721c0-5.911,4.809-10.721,10.721-10.721h7.815
			c4.475,0,8.116,3.641,8.116,8.116v5.21C269.326,256.543,272.691,259.908,276.841,259.908z"/>
	</g>
</g>
<g>
</g>
<g>
</g>
<g>
</g>
<g>
</g>
<g>
</g>
<g>
</g>
<g>
</g>
<g>
</g>
<g>
</g>
<g>
</g>
<g>
</g>
<g>
</g>
<g>
</g>
<g>
</g>
<g>
</g>
</svg>
