<svg id="Layer_1_1_" enable-background="new 0 0 64 64" height="512" viewBox="0 0 64 64" width="512" xmlns="http://www.w3.org/2000/svg"><path d="m45.089 26.996c.295-.026.562-.182.732-.425l16-23-1.643-1.143-15.317 22.019-6.154-6.154c-.215-.214-.509-.317-.816-.287-.301.033-.571.201-.734.457l-13.284 20.874-6.12-6.995c-.205-.234-.511-.352-.818-.34-.311.021-.594.185-.767.443l-14 21 1.664 1.109 13.275-19.913 6.14 7.017c.208.237.52.361.829.339.313-.023.599-.194.768-.46l13.331-20.948 6.118 6.118c.209.21.495.321.796.289z"/><path d="m15 52h-2v-3h-2v3h-2c-.553 0-1 .447-1 1v8c0 .553.447 1 1 1h6c.553 0 1-.447 1-1v-8c0-.553-.447-1-1-1zm-1 8h-4v-6h4z"/><path d="m37 46h-2v-3h-2v3h-2c-.553 0-1 .447-1 1v11c0 .553.447 1 1 1h2v3h2v-3h2c.553 0 1-.447 1-1v-11c0-.553-.447-1-1-1zm-1 11h-4v-9h4z"/><path d="m48 33h-6c-.553 0-1 .447-1 1v8c0 .553.447 1 1 1h2v11h2v-11h2c.553 0 1-.447 1-1v-8c0-.553-.447-1-1-1zm-1 8h-4v-6h4z"/><path d="m59 21h-2v-3h-2v3h-2c-.553 0-1 .447-1 1v8c0 .553.447 1 1 1h2v3h2v-3h2c.553 0 1-.447 1-1v-8c0-.553-.447-1-1-1zm-1 8h-4v-6h4z"/><path d="m24 44h-2v3h-3v2h3v3h2v-3h3v-2h-3z"/><path d="m2 2h6v2h-6z"/><path d="m11 2h6v2h-6z"/><path d="m20 2h6v2h-6z"/><path d="m29 2h6v2h-6z"/><path d="m38 2h6v2h-6z"/><path d="m47 2h6v2h-6z"/><path d="m2 7h6v2h-6z"/><path d="m11 7h6v2h-6z"/><path d="m20 7h6v2h-6z"/><path d="m29 7h6v2h-6z"/><path d="m38 7h6v2h-6z"/><path d="m47 7h6v2h-6z"/><path d="m2 12h6v2h-6z"/><path d="m11 12h6v2h-6z"/><path d="m20 12h6v2h-6z"/><path d="m29 12h6v2h-6z"/><path d="m38 12h6v2h-6z"/><path d="m2 17h6v2h-6z"/><path d="m11 17h6v2h-6z"/><path d="m20 17h6v2h-6z"/><path d="m29 17h6v2h-6z"/><path d="m2 22h6v2h-6z"/><path d="m11 22h6v2h-6z"/><path d="m20 22h6v2h-6z"/><path d="m2 27h6v2h-6z"/><path d="m11 27h6v2h-6z"/><path d="m20 27h6v2h-6z"/><path d="m2 32h6v2h-6z"/><path d="m2 37h6v2h-6z"/></svg>